<?xml version="1.0" standalone="no"?><svg xmlns="http://www.w3.org/2000/svg" viewBox="0 0 1440 320"><path fill="#d8d8d8" fill-opacity="1" d="M0,128L34.3,117.3C68.6,107,137,85,206,96C274.3,107,343,149,411,170.7C480,192,549,192,617,170.7C685.7,149,754,107,823,74.7C891.4,43,960,21,1029,48C1097.1,75,1166,149,1234,181.3C1302.9,213,1371,203,1406,197.3L1440,192L1440,0L1405.7,0C1371.4,0,1303,0,1234,0C1165.7,0,1097,0,1029,0C960,0,891,0,823,0C754.3,0,686,0,617,0C548.6,0,480,0,411,0C342.9,0,274,0,206,0C137.1,0,69,0,34,0L0,0Z"></path></svg>